HIERARCHY
ROOT Pelvis
{
	OFFSET 0.000000 0.000000 0.000000
	CHANNELS 6 Xposition Yposition Zposition Xrotation Yrotation Zrotation
	JOINT LeftUpLeg_virtual
	{
		OFFSET 0.000000 0.000000 0.000000
		CHANNELS 3 Xrotation Yrotation Zrotation
		JOINT LeftUpLeg
		{
			OFFSET 18.735201 -5.666702 -4.541200
			CHANNELS 3 Xrotation Yrotation Zrotation
			JOINT LeftLeg
			{
				OFFSET -0.021200 -31.938179 0.493100
				CHANNELS 3 Xrotation Yrotation Zrotation
				JOINT LeftFoot
				{
					OFFSET 0.021200 -31.938179 -4.336299
					CHANNELS 3 Xrotation Yrotation Zrotation
					JOINT LeftToeBase
					{
						OFFSET 0.943001 -26.722000 15.023500
						CHANNELS 3 Xrotation Yrotation Zrotation
						End Site
						{
							OFFSET 0 0 0
						}
					}
				}
			}
		}
	}
	JOINT RightUpLeg_virtual
	{
		OFFSET 0.000000 0.000000 0.000000
		CHANNELS 3 Xrotation Yrotation Zrotation
		JOINT RightUpLeg
		{
			OFFSET -18.735201 -5.666702 -4.541200
			CHANNELS 3 Xrotation Yrotation Zrotation
			JOINT RightLeg
			{
				OFFSET 0.018946 -31.938133 0.493100
				CHANNELS 3 Xrotation Yrotation Zrotation
				JOINT RightFoot
				{
					OFFSET -0.018946 -31.938126 -4.336299
					CHANNELS 3 Xrotation Yrotation Zrotation
					JOINT RightToeBase
					{
						OFFSET -0.943001 -26.722004 15.023500
						CHANNELS 3 Xrotation Yrotation Zrotation
						End Site
						{
							OFFSET 0 0 0
						}
					}
				}
			}
		}
	}
	JOINT Hips_virtual
	{
		OFFSET 0.000000 0.000000 0.000000
		CHANNELS 3 Xrotation Yrotation Zrotation
		JOINT Hips
		{
			OFFSET -0.000000 -0.000000 -0.000000
			CHANNELS 3 Xrotation Yrotation Zrotation
			JOINT Spine
			{
				OFFSET 0.000000 10.199997 -0.299500
				CHANNELS 3 Xrotation Yrotation Zrotation
				JOINT Spine1
				{
					OFFSET 0.000000 11.900002 -1.516600
					CHANNELS 3 Xrotation Yrotation Zrotation
					JOINT Spine2
					{
						OFFSET 0.000000 13.600006 -2.842500
						CHANNELS 3 Xrotation Yrotation Zrotation
						JOINT Neck_virtual
						{
							OFFSET 0.000000 0.000000 0.000000
							CHANNELS 3 Xrotation Yrotation Zrotation
							JOINT Neck
							{
								OFFSET 0.000000 9.624100 -2.890100
								CHANNELS 3 Xrotation Yrotation Zrotation
								JOINT Head
								{
									OFFSET 0.000000 14.068802 -1.351900
									CHANNELS 3 Xrotation Yrotation Zrotation
									End Site
									{
										OFFSET 0 0 0
									}
								}
							}
						}
						JOINT LeftShoulder_virtual
						{
							OFFSET 0.000000 0.000000 0.000000
							CHANNELS 3 Xrotation Yrotation Zrotation
							JOINT LeftShoulder
							{
								OFFSET 15.263000 10.923401 -0.547700
								CHANNELS 3 Xrotation Yrotation Zrotation
								JOINT LeftArm
								{
									OFFSET 25.438599 -2.830597 -13.032500
									CHANNELS 3 Xrotation Yrotation Zrotation
									JOINT LeftForeArm
									{
										OFFSET 29.960503 0.000000 0.000000
										CHANNELS 3 Xrotation Yrotation Zrotation
										JOINT LeftHand
										{
											OFFSET 27.849251 0.000000 0.000000
											CHANNELS 3 Xrotation Yrotation Zrotation
											End Site
											{
												OFFSET 0 0 0
											}
										}
									}
								}
							}
						}
						JOINT RightShoulder_virtual
						{
							OFFSET 0.000000 0.000000 0.000000
							CHANNELS 3 Xrotation Yrotation Zrotation
							JOINT RightShoulder
							{
								OFFSET -15.263000 10.923401 -0.547700
								CHANNELS 3 Xrotation Yrotation Zrotation
								JOINT RightArm
								{
									OFFSET -25.438599 -2.830597 -13.032500
									CHANNELS 3 Xrotation Yrotation Zrotation
									JOINT RightForeArm
									{
										OFFSET -29.960503 0.000000 0.000000
										CHANNELS 3 Xrotation Yrotation Zrotation
										JOINT RightHand
										{
											OFFSET -27.849251 0.000000 0.000000
											CHANNELS 3 Xrotation Yrotation Zrotation
											End Site
											{
												OFFSET 0 0 0
											}
										}
									}
								}
							}
						}
					}
				}
			}
		}
	}
}
MOTION
Frames: 11
Frame Time: 0.03333333
-1.413914 82.039230 13.999813 0.000000 0.000000 0.000000 -4.631987 -46.797509 -0.158906 -39.370826 9.526189 24.246304 55.962305 -13.865568 -1.587290 -11.212890 5.570904 -21.418256 0.000000 0.000000 0.000000 -4.197695 -46.579069 0.387180 -21.608880 -11.012555 -47.599496 62.022755 -3.916050 0.317444 -27.086503 -9.968197 29.150499 0.000000 0.000000 0.000000 -4.510649 -47.540418 -0.102088 -0.761163 0.082165 0.188095 22.331954 -1.091472 -8.653156 -0.511274 4.622630 -1.103211 0.000000 0.000000 0.000000 -3.264430 6.339321 0.854317 0.596080 -6.180680 2.851464 0.000000 0.000000 0.000000 1.820843 6.113059 1.420332 0.480503 19.345970 -8.917539 -56.282565 -28.210199 -61.442060 -28.395125 -53.466024 -25.134451 0.000000 0.000000 0.000000 -2.274878 6.019062 -2.987409 10.799836 2.812798 -0.980103 -43.783152 21.932388 79.085661 149.303823 51.933282 -144.791623 0.000000 0.000000 0.000000 
-1.223097 81.743713 13.051868 0.000000 0.000000 0.000000 -5.614613 -46.766076 -0.377161 -39.431382 9.456198 23.999092 56.070430 -13.807565 -0.989441 -10.604157 4.592804 -20.671115 0.000000 0.000000 0.000000 -5.261725 -46.616082 0.066244 -21.258774 -9.674714 -48.314159 62.084937 -2.116266 -0.084507 -21.845815 -6.298971 32.913821 0.000000 0.000000 0.000000 -5.226595 -47.411540 -0.169877 -0.818147 0.143008 0.052050 21.423208 -0.243967 -7.692157 -0.979781 5.277924 -1.748989 0.000000 0.000000 0.000000 -2.933525 6.745111 -0.093105 0.813553 -6.124034 2.671373 0.000000 0.000000 0.000000 2.274302 6.767934 0.635822 0.935971 20.459960 -10.001706 -53.603625 -28.785054 -64.161773 -29.572813 -56.449137 -27.502255 0.000000 0.000000 0.000000 -2.102254 6.425687 -3.747061 10.394170 3.246266 -0.889993 -42.894872 21.014253 75.634298 148.571436 54.708418 -143.022167 0.000000 0.000000 0.000000 
-1.003231 81.699028 11.928097 0.000000 0.000000 0.000000 -6.912896 -47.564286 -0.225656 -37.870120 9.304622 22.328493 54.437567 -13.380600 -0.499851 -10.169637 3.592579 -21.004379 0.000000 0.000000 0.000000 -6.777973 -47.066420 0.160406 -20.742849 -6.239204 -47.901104 64.977645 -2.358364 -1.040357 -20.250136 -4.688568 29.310883 0.000000 0.000000 0.000000 -6.233684 -47.368178 0.203857 -0.812449 0.179809 -0.089848 20.405670 1.596062 -5.892027 -0.965926 6.544120 -2.854554 0.000000 0.000000 0.000000 -1.815062 7.820468 -1.839612 1.154136 -5.948553 2.151543 0.000000 0.000000 0.000000 2.570109 8.050630 -0.408517 0.652153 20.791728 -9.450776 -48.871776 -32.456246 -69.414448 -29.872608 -58.309625 -29.340368 0.000000 0.000000 0.000000 -1.770819 7.572769 -4.784339 9.740710 5.589868 3.142305 -40.199502 19.309040 65.226456 150.168566 57.833650 -142.700998 0.000000 0.000000 0.000000 
-0.760123 81.789841 11.121956 0.000000 0.000000 0.000000 -8.301594 -49.838074 0.068073 -34.526883 9.457456 19.564881 51.229472 -12.692237 -0.021385 -10.111023 2.745660 -22.504910 0.000000 0.000000 0.000000 -8.411696 -49.028641 0.448954 -20.683073 -2.143615 -46.645066 68.848546 -4.870803 -1.776800 -25.064634 -5.775319 19.242610 0.000000 0.000000 0.000000 -7.466868 -48.731986 0.821952 -0.768718 0.113854 -0.169923 19.293396 3.926490 -3.422919 -0.466129 7.781250 -3.762338 0.000000 0.000000 0.000000 -0.326852 9.129338 -3.624671 1.442945 -5.667224 1.468262 0.000000 0.000000 0.000000 2.939938 9.562619 -1.258637 -0.462903 20.382738 -6.825235 -43.551096 -37.716605 -75.254444 -28.503103 -58.066245 -29.385342 0.000000 0.000000 0.000000 -1.083500 9.007439 -5.550455 8.729533 8.981209 9.840962 -37.509575 19.169633 51.264637 153.881963 61.228493 -144.102348 0.000000 0.000000 0.000000 
-0.593332 81.952080 10.821831 0.000000 0.000000 0.000000 -9.621966 -54.292217 0.272043 -29.933471 10.284587 16.479988 47.228975 -11.627454 0.592548 -10.196224 2.474837 -24.615047 0.000000 0.000000 0.000000 -10.007504 -53.236164 0.562541 -21.636866 2.393201 -44.846882 72.066323 -7.959135 -1.717161 -31.602800 -6.305432 8.744354 0.000000 0.000000 0.000000 -8.877470 -52.552596 1.336050 -0.750448 0.016016 -0.149030 18.007148 6.065694 -0.557094 0.442882 8.520271 -3.878024 0.000000 0.000000 0.000000 1.232303 10.228278 -4.666438 1.488880 -5.334709 0.809743 0.000000 0.000000 0.000000 3.789626 10.808665 -1.611093 -2.162942 19.387238 -2.637405 -37.719877 -42.038923 -79.813793 -25.798043 -55.242252 -27.657072 0.000000 0.000000 0.000000 0.026304 10.188679 -5.544825 7.426137 12.550356 16.525284 -35.486364 23.762073 37.154539 158.087296 65.526929 -146.001495 0.000000 0.000000 0.000000 
-0.526696 82.014832 10.725666 0.000000 0.000000 0.000000 -10.705509 -61.188537 0.208134 -24.868210 11.658099 13.678453 43.387035 -10.009229 1.507409 -10.920357 3.269067 -26.430247 0.000000 0.000000 0.000000 -11.278387 -60.024563 0.339555 -24.157749 7.975713 -42.777905 72.626590 -9.878987 -1.308201 -33.799276 -5.496763 3.080127 0.000000 0.000000 0.000000 -10.068592 -59.560786 1.497093 -0.779988 -0.035602 -0.046054 17.170510 7.343617 2.361761 1.657121 8.472423 -2.856247 0.000000 0.000000 0.000000 2.849861 10.704744 -4.362748 1.188528 -4.995300 0.363477 0.000000 0.000000 0.000000 5.372837 11.274843 -1.325395 -4.094810 17.542219 2.127469 -31.124359 -42.909929 -81.636989 -23.664527 -51.379907 -26.006309 0.000000 0.000000 0.000000 1.696000 10.755683 -4.576144 6.377337 15.551987 20.999075 -33.458016 34.883146 25.003106 162.537342 70.198075 -148.368088 0.000000 0.000000 0.000000 
-0.452269 82.003922 10.386154 0.000000 0.000000 0.000000 -11.375102 -70.613952 -0.161844 -19.660180 13.082707 11.151172 39.862630 -7.984130 2.857008 -13.151273 5.322065 -27.496962 0.000000 0.000000 0.000000 -11.840681 -69.475496 -0.093322 -27.985327 14.411419 -40.365793 69.411722 -9.949345 -1.081924 -30.949315 -3.815234 2.899233 0.000000 0.000000 0.000000 -10.584518 -69.785101 1.381673 -0.831386 -0.016509 0.054361 17.174909 7.581133 5.045971 3.221617 7.621814 -0.949203 0.000000 0.000000 0.000000 4.563661 10.402692 -2.776738 0.566317 -4.596062 0.213491 0.000000 0.000000 0.000000 7.842047 10.795361 -0.575260 -5.755002 14.541765 6.412399 -22.643544 -40.001693 -80.907996 -23.569572 -49.191422 -26.038150 0.000000 0.000000 0.000000 3.924428 10.508437 -2.808699 6.017687 17.877749 22.151500 -29.930295 51.689202 15.129395 167.899437 74.068832 -152.047633 0.000000 0.000000 0.000000 
-0.331398 81.922691 9.769501 0.000000 0.000000 0.000000 -11.070996 -82.089394 -0.427819 -14.236711 14.397443 8.701244 36.137100 -5.990766 4.571051 -16.811612 8.214470 -28.013828 0.000000 0.000000 0.000000 -11.277720 -81.192262 -0.321526 -32.168429 19.835674 -37.655956 62.236745 -8.561755 -0.480553 -26.091787 -1.494096 6.467947 0.000000 0.000000 0.000000 -8.500234 -82.006523 2.787526 -0.867515 0.047266 0.074054 18.208977 6.756113 7.409971 5.330272 6.137252 1.247460 0.000000 0.000000 0.000000 6.994255 9.306958 -0.629784 -0.176658 -4.151750 0.411393 0.000000 0.000000 0.000000 10.804776 9.381467 0.261937 -6.785282 10.042979 9.478132 -11.949317 -34.467860 -78.629001 -26.068986 -50.205763 -28.692539 0.000000 0.000000 0.000000 6.525360 9.479217 -0.670660 6.180623 19.342011 20.564016 -23.633356 69.726594 5.820403 173.162712 76.812908 -156.077172 0.000000 0.000000 0.000000 
-0.171543 81.737793 9.060471 0.000000 0.000000 0.000000 166.666246 -85.788802 175.957872 -8.887096 15.893403 6.371098 31.893575 -4.177695 6.315933 -21.027736 11.433924 -28.149014 0.000000 0.000000 0.000000 165.778376 -86.353904 175.254458 -36.126964 23.219763 -34.704027 52.890523 -6.512074 1.228284 -22.039029 1.172938 11.501496 0.000000 0.000000 0.000000 161.248759 -85.169454 170.974333 -0.891048 0.103693 0.007877 20.151618 5.023501 9.469190 8.013621 4.223628 3.164255 0.000000 0.000000 0.000000 10.373282 7.628642 1.279161 -0.865913 -3.724795 0.889973 0.000000 0.000000 0.000000 13.958862 7.279639 0.836048 -7.097466 4.088115 11.296037 0.159883 -27.556803 -75.859400 -31.751617 -54.251110 -34.817384 0.000000 0.000000 0.000000 9.375910 7.846062 1.230822 6.548943 19.539144 17.844016 -4.295149 83.902460 -14.920092 177.491290 77.269609 -159.596263 0.000000 0.000000 0.000000 
0.108985 81.483902 8.589420 0.000000 0.000000 0.000000 168.779671 -74.827871 176.307741 -4.446552 17.835753 4.413369 27.883187 -2.603962 7.828555 -24.763489 14.680346 -27.872132 0.000000 0.000000 0.000000 168.517050 -75.168390 176.144937 -39.955780 25.091858 -31.341132 43.955358 -4.501921 3.859022 -18.517307 3.874326 16.760181 0.000000 0.000000 0.000000 166.773426 -73.798609 174.424645 -0.885662 0.142643 -0.092280 22.348266 2.813670 11.131951 11.042247 2.163599 4.304100 0.000000 0.000000 0.000000 14.289606 5.651624 2.318341 -1.420970 -3.398688 1.472772 0.000000 0.000000 0.000000 17.087508 4.909348 0.878831 -6.857419 -2.661852 12.190551 12.516817 -20.299478 -73.475569 -40.395767 -58.954307 -44.036258 0.000000 0.000000 0.000000 12.401528 5.899552 2.363429 6.657114 18.587788 15.576310 112.932902 86.563277 -133.290295 179.230215 75.064947 -160.771807 0.000000 0.000000 0.000000 
0.402309 81.067146 8.487930 0.000000 0.000000 0.000000 170.147648 -66.192968 176.024562 -1.231964 20.069748 2.967455 25.326131 -1.368424 8.997053 -27.549418 17.725879 -27.106026 0.000000 0.000000 0.000000 169.967728 -66.454291 175.773976 -43.619849 26.352304 -27.475054 37.282526 -2.778094 6.538184 -14.862278 6.387535 20.858204 0.000000 0.000000 0.000000 168.675893 -65.217795 174.297316 -0.848806 0.152539 -0.154165 24.314321 0.389723 12.256552 14.036280 0.160842 4.543806 0.000000 0.000000 0.000000 18.129900 3.609612 2.324375 -1.790290 -3.194414 1.977443 0.000000 0.000000 0.000000 19.799240 2.688150 0.451618 -6.302421 -9.000933 12.676928 22.621513 -12.594137 -71.918907 -49.416122 -62.122230 -53.482403 0.000000 0.000000 0.000000 15.425653 4.023674 2.461203 6.461781 17.020123 14.805929 130.770952 85.905953 -152.597901 178.581730 70.862454 -159.597929 0.000000 0.000000 0.000000 
